# xmcd
#
# Track frame offsets:
#	150
#	14415
#	30920
#	45620
#	58751
#	72770
#	85117
#	100865
#	116591
#	133398
#	150042
#	164396
#	177109
#	195507
#
# Disc length: 2841 seconds
#
# Revision: 1
# Processed by: cddbd v1.5.2PL0 Copyright (c) Steve Scherf et al.
# Submitted via: audiograbber 1.83.01
#
DISCID=a90b170e
DTITLE=Various Artist - Hillrest #37
DYEAR=1900
DGENRE=Country
TTITLE0=Dave Sheriff - A Friend In Need
TTITLE1=Marcus Tribble - Through The Eyes of My heart
TTITLE2=John Williamson - Chandelier Of Stars
TTITLE3=Robert Mizzell - You're Why God made me
TTITLE4=Judy Kanyo - Gone For Good
TTITLE5=Steven Anthony - You Won't Break Me Down
TTITLE6=Vannatta - Too Much is Not Enough
TTITLE7=Graham Clark - I Don't Know How She Did It
TTITLE8=Carolan Deacon - Masterpiece
TTITLE9=Marcus Meier - Walk In The Rain
TTITLE10=Glenn Reid - Your Time Is Coming
TTITLE11=Beggars - It's Not You
TTITLE12=Jed Allen - Circle of Love
TTITLE13=Steve Roberson - Li'l Darlin'
EXTD=
EXTT0=
EXTT1=
EXTT2=
EXTT3=
EXTT4=
EXTT5=
EXTT6=
EXTT7=
EXTT8=
EXTT9=
EXTT10=
EXTT11=
EXTT12=
EXTT13=
PLAYORDER=
